<svg width="32" height="32" viewBox="0 0 32 32" fill="none" xmlns="http://www.w3.org/2000/svg">
<path d="M12.1125 15.3026C12.6733 15.3026 13.1279 15.7539 13.1279 16.3106V17.6352H14.4739C14.8607 17.5936 15.2373 17.775 15.4438 18.1023C15.6503 18.4295 15.6503 18.8452 15.4438 19.1724C15.2373 19.4997 14.8607 19.6811 14.4739 19.6396H13.1279V20.9758C13.1215 21.5299 12.6706 21.9775 12.1125 21.9839C11.5445 21.9775 11.097 21.528 11.0971 20.9758V19.6396H9.75103C9.3643 19.6811 8.98762 19.4997 8.78113 19.1724C8.57465 18.8452 8.57465 18.4295 8.78113 18.1023C8.98762 17.775 9.3643 17.5936 9.75103 17.6352H11.0971V16.3106L11.1063 16.1738C11.1736 15.6818 11.5984 15.3026 12.1125 15.3026ZM21.5583 20.2491C21.8461 19.9629 22.2785 19.8752 22.6563 20.0264C22.7777 20.0827 22.8893 20.1579 22.9869 20.2491C23.3751 20.6395 23.3723 21.268 22.9807 21.655C22.5891 22.042 21.9561 22.042 21.5645 21.655C21.1729 21.268 21.1701 20.6395 21.5583 20.2491ZM19.6219 15.5604C19.8639 15.4614 20.1355 15.4614 20.3775 15.5604C20.5039 15.6143 20.6198 15.6897 20.72 15.7831C20.9072 15.9702 21.0132 16.2227 21.0151 16.4864C21.0167 16.6187 20.9927 16.75 20.9443 16.8733C20.8977 16.9992 20.8206 17.1119 20.72 17.2015C20.3232 17.5765 19.6998 17.5765 19.3031 17.2015C19.1059 17.0176 18.994 16.7609 18.994 16.4923C18.994 16.2237 19.1059 15.967 19.3031 15.7831C19.3919 15.6869 19.5006 15.6109 19.6219 15.5604ZM29.3272 15.3547C29.1485 11.2493 25.6712 8.10666 21.4805 8.13599C20.9672 8.14399 20.5565 8.56399 20.5632 9.07866C20.5698 9.59066 20.9885 10.012 21.5045 9.99599C24.7672 9.93066 27.3298 12.2907 27.4672 15.4333C27.4738 15.556 27.4752 15.68 27.4712 15.8267V21.612C27.5058 23.1333 26.9445 24.5747 25.8938 25.672C24.8432 26.772 23.4272 27.3947 21.9045 27.428C21.7805 27.4307 21.6552 27.428 21.4765 27.4227C17.7765 27.4853 14.0925 27.4853 10.4685 27.424C7.3045 27.56 4.66984 25.1213 4.5325 21.988C4.52717 21.8627 4.52584 21.7373 4.5285 21.592V15.8053C4.4605 12.6667 6.95784 10.0587 10.0992 9.99199C10.2218 9.98799 10.3472 9.99199 10.5098 9.99599H16.7592C17.2725 9.99599 17.6898 9.57999 17.6898 9.06532V7.81866C17.6632 5.88799 16.0805 4.32932 14.1618 4.32932H14.1352H12.8152H12.8072C12.6112 4.32932 12.4258 4.25332 12.2845 4.11466C12.1405 3.97599 12.0605 3.78799 12.0592 3.58799C12.0538 3.07732 11.6378 2.66666 11.1298 2.66666H11.1192C10.6058 2.67199 10.1938 3.09332 10.1992 3.60666C10.2072 4.30266 10.4845 4.95599 10.9818 5.44266C11.4805 5.93332 12.1365 6.16132 12.8258 6.19066H14.1418H14.1552C15.0672 6.19066 15.8178 6.92932 15.8285 7.82932V8.13599L10.5498 8.13732C10.3832 8.13066 10.2178 8.12799 10.0552 8.13066C5.8925 8.22132 2.57784 11.6827 2.6685 15.8267V21.5733C2.66584 21.7373 2.66717 21.9013 2.67384 22.0667C2.8565 26.2267 6.3805 29.4867 10.4938 29.2827C12.2818 29.3147 14.1018 29.3293 15.9298 29.3293C17.7685 29.3293 19.6152 29.3147 21.4525 29.2813C21.6192 29.288 21.7845 29.2907 21.9485 29.2867C23.9645 29.2427 25.8432 28.4173 27.2378 26.9587C28.6325 25.5013 29.3765 23.588 29.3312 21.592V15.8493C29.3352 15.6853 29.3338 15.52 29.3272 15.3547Z" fill="white"/>
</svg>
