<svg width="32" height="32" viewBox="0 0 32 32" fill="none" xmlns="http://www.w3.org/2000/svg">
<path d="M16.0444 2.66667C22.2929 2.69123 27.3578 7.7893 27.3333 14.0298V14.1537C27.2489 18.6134 24.5678 22.3141 22.3339 24.6328C21.6982 25.2958 21.0214 25.9319 20.3237 26.5259C19.9057 26.8825 19.2781 26.8334 18.9211 26.416C18.564 25.9974 18.6143 25.3706 19.0323 25.014C19.6786 24.4633 20.3073 23.8716 20.8985 23.2554C22.8865 21.1928 25.2702 17.9317 25.3428 14.1175C25.3627 8.8779 21.1889 4.67433 16.0362 4.65328H15.9999C10.8648 4.65328 6.67693 8.81593 6.65703 13.9479C6.74484 16.4829 7.60186 18.8928 9.13676 20.9145C10.9281 23.2998 13.6455 25.8255 16.2282 27.5069C16.6895 27.8063 16.8195 28.4213 16.5186 28.882C16.3289 29.1743 16.0093 29.3333 15.6838 29.3333C15.4977 29.3333 15.3103 29.2819 15.1417 29.172C12.3763 27.3724 9.46575 24.6667 7.54683 22.1118C5.76606 19.7651 4.76972 16.9647 4.66669 14.0169C4.69127 7.71447 9.77133 2.66667 15.9999 2.66667H16.0444ZM15.9964 9.84455C18.3743 9.84455 20.3096 11.7762 20.3096 14.1522C20.3096 16.527 18.3743 18.4587 15.9964 18.4587C13.6185 18.4587 11.6832 16.527 11.6832 14.1522C11.6832 13.6026 12.1293 13.1583 12.6784 13.1583C13.2275 13.1583 13.6736 13.6026 13.6736 14.1522C13.6736 15.4302 14.7156 16.472 15.9964 16.472C17.2773 16.472 18.3193 15.4302 18.3193 14.1522C18.3193 12.873 17.2773 11.8312 15.9964 11.8312C15.4473 11.8312 15.0012 11.3868 15.0012 10.8384C15.0012 10.2889 15.4473 9.84455 15.9964 9.84455Z" fill="white"/>
</svg>
