<svg width="32" height="32" viewBox="0 0 32 32" fill="none" xmlns="http://www.w3.org/2000/svg">
<path d="M20.5788 9.97342C20.9695 9.58024 21.6015 9.58024 21.9922 9.97342C22.3829 10.3666 22.3829 11.004 21.9922 11.3972L14.7866 18.6503L19.8454 27.0266C20.0294 27.3312 20.3188 27.3285 20.4388 27.3151C20.5561 27.299 20.8401 27.2265 20.9415 26.8857L24.0376 16.4656C24.1976 15.9316 24.7536 15.6283 25.2829 15.7893C25.8123 15.949 26.1136 16.5099 25.955 17.0427L22.8589 27.4613C22.5589 28.4691 21.7295 29.1777 20.6935 29.3105C20.5775 29.3266 20.4628 29.3333 20.3481 29.3333C19.4441 29.3333 18.6174 28.869 18.136 28.0719L12.6692 19.0193C12.4305 18.6221 12.4905 18.1122 12.8172 17.7847L20.5788 9.97342ZM26.0052 2.76972C26.9186 2.50401 27.908 2.76032 28.5787 3.44336C29.2494 4.12506 29.4974 5.11942 29.224 6.03998L27.5586 11.6425C27.4 12.1752 26.8453 12.4772 26.3146 12.3188C25.7852 12.1591 25.4839 11.5982 25.6426 11.0668L27.308 5.46295C27.4013 5.14894 27.2346 4.93692 27.1586 4.86043C27.0826 4.7826 26.8693 4.61352 26.5613 4.70342L5.10585 10.942C4.7645 11.0413 4.68984 11.3271 4.67383 11.4452C4.65917 11.5633 4.65383 11.8586 4.95784 12.0464L9.47267 14.8242C9.94335 15.1141 10.0927 15.734 9.80335 16.2091C9.61534 16.5177 9.28733 16.6895 8.94998 16.6895C8.77264 16.6895 8.59264 16.6425 8.42997 16.5419L3.91514 13.7627C3.02044 13.2125 2.55109 12.2222 2.6911 11.1769C2.8311 10.1302 3.54446 9.29951 4.55116 9.00697L26.0052 2.76972Z" fill="white"/>
</svg>
